<svg width="17" height="17" viewBox="0 0 17 17" fill="none" xmlns="http://www.w3.org/2000/svg">
<path d="M13.4577 6.37435C13.4577 7.40143 13.1531 8.34353 12.6289 9.12978C11.8639 10.2631 10.6527 11.0635 9.2431 11.2689C9.00227 11.3114 8.75435 11.3327 8.49935 11.3327C8.24435 11.3327 7.99643 11.3114 7.7556 11.2689C6.34602 11.0635 5.13477 10.2631 4.36977 9.12978C3.8456 8.34353 3.54102 7.40143 3.54102 6.37435C3.54102 3.6331 5.7581 1.41602 8.49935 1.41602C11.2406 1.41602 13.4577 3.6331 13.4577 6.37435Z" stroke="#292D32" stroke-linecap="round" stroke-linejoin="round"/>
<path d="M15.0514 13.0829L13.8826 13.3591C13.6205 13.4229 13.4151 13.6212 13.3584 13.8833L13.1105 14.9245C12.9759 15.4912 12.2534 15.6612 11.878 15.215L8.49928 11.3333L5.12053 15.222C4.74512 15.6683 4.02262 15.4983 3.88803 14.9316L3.64012 13.8904C3.57637 13.6283 3.37095 13.4229 3.11595 13.3662L1.9472 13.09C1.40887 12.9625 1.21762 12.2895 1.6072 11.8999L4.3697 9.13745C5.1347 10.2708 6.34595 11.0712 7.75553 11.2766C7.99637 11.3191 8.24428 11.3404 8.49928 11.3404C8.75428 11.3404 9.0022 11.3191 9.24303 11.2766C10.6526 11.0712 11.8639 10.2708 12.6289 9.13745L15.3914 11.8999C15.7809 12.2824 15.5897 12.9554 15.0514 13.0829Z" stroke="#292D32" stroke-linecap="round" stroke-linejoin="round"/>
<path d="M8.9109 4.23648L9.32881 5.07231C9.38548 5.18565 9.53423 5.29898 9.66881 5.32023L10.4267 5.44773C10.9084 5.52565 11.0217 5.87982 10.6746 6.2269L10.0867 6.81481C9.98756 6.91397 9.9309 7.10523 9.96631 7.2469L10.1363 7.97648C10.2709 8.55023 9.96631 8.77689 9.45631 8.4723L8.74798 8.05439C8.62048 7.97647 8.40798 7.97647 8.28048 8.05439L7.57215 8.4723C7.06215 8.7698 6.75756 8.55023 6.89215 7.97648L7.06215 7.2469C7.09048 7.11232 7.0409 6.91397 6.94173 6.81481L6.35381 6.2269C6.00673 5.87982 6.12006 5.53273 6.60173 5.44773L7.35965 5.32023C7.48715 5.29898 7.6359 5.18565 7.69256 5.07231L8.11048 4.23648C8.3159 3.78315 8.68423 3.78315 8.9109 4.23648Z" stroke="#292D32" stroke-linecap="round" stroke-linejoin="round"/>
</svg>
